<svg width="38" height="36" viewBox="0 0 38 36" fill="none" xmlns="http://www.w3.org/2000/svg">
<g clip-path="url(#clip0_10_17)">
<circle cx="12.1582" cy="11.3301" r="11.3984" fill="#FFD166"/>
<path d="M9.41276 4.50001C8.55866 4.50001 7.87109 5.16901 7.87109 6.00001V30C7.87109 30.75 8.64193 31.5 9.41276 31.5H23.2878C24.0586 31.5 24.8294 30.75 24.8294 30V22.5H25.6003C26.3711 22.5 26.3711 23.25 26.3711 23.25V26.25C26.3711 27.75 27.1419 28.5 28.6836 28.5C30.2253 28.5 30.9961 27.75 30.9961 26.25C30.9961 24.4999 30.9961 19.5 30.9961 18C30.9961 16.5 27.9128 15 27.9128 13.5V9.00001H26.3711L24.8294 7.50001V6.00001C24.8294 5.16901 24.1419 4.50001 23.2878 4.50001H9.41276ZM10.9544 7.50001H21.7461V13.5H10.9544V7.50001ZM24.8294 12H26.3711C26.3711 12 26.3711 13.25 26.3711 14.25C26.3711 15.75 29.4544 17.25 29.4544 18.75V26.25C29.4544 27 28.6836 27 28.6836 27C28.6836 27 27.9128 27 27.9128 26.25C27.9128 26.25 27.9128 23.25 27.9128 22.5C27.9128 21.75 27.1419 21 26.3711 21C25.8572 21 24.8294 21 24.8294 21V12Z" fill="black"/>
</g>
<defs>
<clipPath id="clip0_10_17">
<rect width="37" height="36" fill="white" transform="translate(0.933594)"/>
</clipPath>
</defs>
</svg>
