<svg width="66" height="65" viewBox="0 0 66 65" fill="none" xmlns="http://www.w3.org/2000/svg">
<g clip-path="url(#clip0_14_22)">
<path d="M66 64C66 55.2479 62.5232 46.8542 56.3345 40.6655C50.1458 34.4768 41.7521 31 33 31C24.2479 31 15.8542 34.4768 9.66548 40.6655C3.47678 46.8542 0 55.2479 0 64H66Z" fill="black"/>
<path d="M63.549 18.524L56.292 10.749C56.0318 10.4848 55.6788 10.3326 55.3081 10.3247C54.9374 10.3169 54.5783 10.4541 54.3072 10.707C54.0361 10.96 53.8745 11.3088 53.8567 11.6792C53.8389 12.0495 53.9664 12.4122 54.212 12.69L59.321 18.164V28.054C59.321 28.546 59.719 28.944 60.211 28.944H63.156V51.825C63.1566 52.6937 62.8275 53.5303 62.2353 54.1658C61.643 54.8013 60.8317 55.1885 59.9651 55.249C59.0985 55.3096 58.2412 55.039 57.5663 54.492C56.8914 53.9451 56.4492 53.1624 56.329 52.302L54.358 38.28C54.1262 36.6754 53.3255 35.2074 52.1019 34.1437C50.8783 33.08 49.3133 32.4914 47.692 32.485H43.578V1.816C43.5775 1.46679 43.4384 1.13207 43.1913 0.885326C42.9441 0.638585 42.6092 0.5 42.26 0.5H8.81C8.46096 0.500264 8.12629 0.638967 7.87939 0.885679C7.63249 1.13239 7.49353 1.46696 7.493 1.816V56.345H5.253C4.39025 56.345 3.56284 56.6877 2.95278 57.2978C2.34273 57.9078 2 58.7353 2 59.598V64.5H49.07V59.598C49.07 59.1707 48.9858 58.7476 48.8223 58.3529C48.6587 57.9582 48.419 57.5995 48.1169 57.2974C47.8147 56.9953 47.456 56.7558 47.0612 56.5923C46.6664 56.4289 46.2433 56.3449 45.816 56.345H43.577V35.329H47.692C48.6285 35.3317 49.5328 35.6713 50.2396 36.2856C50.9465 36.8999 51.4088 37.748 51.542 38.675L53.512 52.698C53.7313 54.2723 54.54 55.7047 55.7746 56.7058C57.0093 57.7069 58.5779 58.202 60.1635 58.0911C61.7492 57.9803 63.2336 57.2717 64.317 56.1086C65.4004 54.9455 66.0019 53.4145 66 51.825V24.745C66.003 22.4354 65.1263 20.2113 63.548 18.525L63.549 18.524ZM11.049 4.993C11.049 4.7444 11.1477 4.50597 11.3234 4.33009C11.4991 4.15421 11.7374 4.05526 11.986 4.055H39.083C39.2062 4.05487 39.3282 4.07904 39.4421 4.12613C39.556 4.17323 39.6594 4.24231 39.7466 4.32944C39.8337 4.41657 39.9028 4.52002 39.9499 4.63389C39.997 4.74775 40.0211 4.86978 40.021 4.993V17.913C40.0211 18.0363 39.997 18.1583 39.9499 18.2723C39.9028 18.3862 39.8337 18.4897 39.7466 18.5769C39.6595 18.6641 39.5561 18.7333 39.4422 18.7805C39.3283 18.8277 39.2063 18.852 39.083 18.852H11.986C11.8627 18.8523 11.7405 18.8282 11.6265 18.781C11.5125 18.7339 11.409 18.6648 11.3218 18.5775C11.2346 18.4902 11.1656 18.3866 11.1186 18.2726C11.0716 18.1585 11.0476 18.0363 11.048 17.913L11.049 4.993Z" fill="#9A1C1F"/>
<path d="M26.0913 40.25H25.5137C25.1697 40.253 24.8331 40.1491 24.5506 39.9527C24.268 39.7563 24.0534 39.477 23.9363 39.1535C23.8191 38.8299 23.8053 38.478 23.8966 38.1462C23.988 37.8145 24.18 37.5192 24.4463 37.3013L27.4475 34.8338L27.2725 34.5888L27.22 34.5188C26.5097 33.5114 25.7259 32.558 24.875 31.6663L24.5863 31.3688L24.2887 31.6663C24.0787 31.8588 19.625 36.4175 19.625 40.0138C19.625 43.4263 21.5675 45.6313 24.5687 45.6313H24.9625H25.4525L25.3387 45.15C25.2994 44.9507 25.2994 44.7456 25.3387 44.5463L26.0913 40.25ZM24.4025 44.1875C22.2675 44.1875 20.9725 42.665 20.9025 40.1188C20.9011 40.0575 20.9125 39.9966 20.9361 39.9401C20.9597 39.8835 20.9949 39.8326 21.0395 39.7905C21.084 39.7485 21.1369 39.7162 21.1947 39.6959C21.2525 39.6755 21.3139 39.6676 21.375 39.6725C21.4331 39.6688 21.4913 39.6773 21.5459 39.6973C21.6005 39.7173 21.6504 39.7485 21.6923 39.7888C21.7343 39.8291 21.7674 39.8777 21.7896 39.9315C21.8118 39.9853 21.8226 40.0431 21.8213 40.1013C21.8213 41.3 22.1975 43.3125 24.4463 43.3125C24.5623 43.3125 24.6736 43.3586 24.7556 43.4406C24.8377 43.5227 24.8838 43.634 24.8838 43.75C24.8838 43.866 24.8377 43.9773 24.7556 44.0594C24.6736 44.1414 24.5623 44.1875 24.4463 44.1875H24.4025ZM35.0687 39.235L27.5 45.4388C27.3461 45.5623 27.1549 45.6301 26.9575 45.6313C26.7254 45.6313 26.5029 45.5391 26.3388 45.375C26.1747 45.2109 26.0825 44.9883 26.0825 44.7563V44.555L26.9575 39.3925H25.5137C25.3415 39.3892 25.1741 39.3351 25.0324 39.2371C24.8908 39.139 24.7812 39.0013 24.7175 38.8413C24.6608 38.6764 24.6547 38.4983 24.6999 38.33C24.7451 38.1616 24.8396 38.0106 24.9712 37.8963L32.5312 31.7013C32.6663 31.5951 32.8295 31.5311 33.0007 31.5171C33.1718 31.5031 33.3433 31.5397 33.4938 31.6225C33.6391 31.713 33.7547 31.8441 33.8262 31.9996C33.8978 32.1552 33.9221 32.3283 33.8962 32.4975L32.9688 37.7475H34.5C34.6646 37.7639 34.8212 37.8267 34.9516 37.9285C35.082 38.0303 35.1809 38.167 35.2367 38.3227C35.2926 38.4784 35.3032 38.6467 35.2673 38.8082C35.2313 38.9697 35.1504 39.1177 35.0338 39.235H35.0687Z" fill="white"/>
</g>
<defs>
<clipPath id="clip0_14_22">
<rect width="66" height="65" fill="white"/>
</clipPath>
</defs>
</svg>
