<svg width="66" height="65" viewBox="0 0 66 65" fill="none" xmlns="http://www.w3.org/2000/svg">
<g clip-path="url(#clip0_2_15)">
<path d="M66 64C66 55.2479 62.5232 46.8542 56.3345 40.6655C50.1458 34.4768 41.7521 31 33 31C24.2479 31 15.8542 34.4768 9.66548 40.6655C3.47678 46.8542 0 55.2479 0 64H66Z" fill="#101010"/>
<path d="M63.549 18.524L56.292 10.749C56.0318 10.4848 55.6788 10.3326 55.3081 10.3247C54.9374 10.3169 54.5783 10.4541 54.3072 10.707C54.0361 10.96 53.8745 11.3088 53.8567 11.6792C53.8389 12.0495 53.9664 12.4122 54.212 12.69L59.321 18.164V28.054C59.321 28.546 59.719 28.944 60.211 28.944H63.156V51.825C63.1566 52.6937 62.8275 53.5303 62.2353 54.1658C61.643 54.8013 60.8317 55.1885 59.9651 55.249C59.0985 55.3096 58.2412 55.039 57.5663 54.492C56.8914 53.9451 56.4492 53.1624 56.329 52.302L54.358 38.28C54.1262 36.6754 53.3255 35.2074 52.1019 34.1437C50.8783 33.08 49.3133 32.4914 47.692 32.485H43.578V1.816C43.5775 1.46679 43.4384 1.13207 43.1913 0.885326C42.9441 0.638585 42.6092 0.5 42.26 0.5H8.81C8.46096 0.500264 8.12629 0.638967 7.87939 0.885679C7.63249 1.13239 7.49353 1.46696 7.493 1.816V56.345H5.253C4.39025 56.345 3.56284 56.6877 2.95278 57.2978C2.34273 57.9078 2 58.7353 2 59.598V64.5H49.07V59.598C49.07 59.1707 48.9858 58.7476 48.8223 58.3529C48.6587 57.9582 48.419 57.5995 48.1169 57.2974C47.8147 56.9953 47.456 56.7558 47.0612 56.5923C46.6664 56.4289 46.2433 56.3449 45.816 56.345H43.577V35.329H47.692C48.6285 35.3317 49.5328 35.6713 50.2396 36.2856C50.9465 36.8999 51.4088 37.748 51.542 38.675L53.512 52.698C53.7313 54.2723 54.54 55.7047 55.7746 56.7058C57.0093 57.7069 58.5779 58.202 60.1635 58.0911C61.7492 57.9803 63.2336 57.2717 64.317 56.1086C65.4004 54.9455 66.0019 53.4145 66 51.825V24.745C66.003 22.4354 65.1263 20.2113 63.548 18.525L63.549 18.524ZM11.049 4.993C11.049 4.7444 11.1477 4.50597 11.3234 4.33009C11.4991 4.15421 11.7374 4.05526 11.986 4.055H39.083C39.2062 4.05487 39.3282 4.07904 39.4421 4.12613C39.556 4.17323 39.6594 4.24231 39.7466 4.32944C39.8337 4.41657 39.9028 4.52002 39.9499 4.63389C39.997 4.74775 40.0211 4.86978 40.021 4.993V17.913C40.0211 18.0363 39.997 18.1583 39.9499 18.2723C39.9028 18.3862 39.8337 18.4897 39.7466 18.5769C39.6595 18.6641 39.5561 18.7333 39.4422 18.7805C39.3283 18.8277 39.2063 18.852 39.083 18.852H11.986C11.8627 18.8523 11.7405 18.8282 11.6265 18.781C11.5125 18.7339 11.409 18.6648 11.3218 18.5775C11.2346 18.4902 11.1656 18.3866 11.1186 18.2726C11.0716 18.1585 11.0476 18.0363 11.048 17.913L11.049 4.993Z" fill="#9A1C1F"/>
<path d="M20.19 46.5V29.357H26.619C27.936 29.357 29.041 29.603 29.934 30.094C30.832 30.585 31.51 31.26 31.968 32.12C32.431 32.974 32.663 33.945 32.663 35.033C32.663 36.132 32.431 37.109 31.968 37.963C31.505 38.816 30.821 39.489 29.917 39.98C29.013 40.465 27.9 40.708 26.577 40.708H22.317V38.155H26.159C26.929 38.155 27.559 38.021 28.05 37.753C28.5192 37.5074 28.8997 37.1209 29.138 36.648C29.378 36.179 29.498 35.641 29.498 35.033C29.498 34.424 29.378 33.889 29.138 33.425C28.8985 32.9564 28.5141 32.5776 28.042 32.345C27.551 32.083 26.918 31.952 26.142 31.952H23.296V46.5H20.19Z" fill="white"/>
</g>
<defs>
<clipPath id="clip0_2_15">
<rect width="66" height="65" fill="white"/>
</clipPath>
</defs>
</svg>
